<svg xmlns="http://www.w3.org/2000/svg" viewBox="0 0 841.9 595.3"><g fill="#61DAFB"><circle cx="420.9" cy="296.5" r="45.7"/><path d="M520.5 78.1c-63.6-36.8-120.2-52.2-163.7-45.1-13.6 2.2-26.2 6.6-37.7 13.1-11.5 6.5-22.1 15.1-31.7 25.7-9.6 10.6-18.2 22.9-25.7 36.8-7.5 13.9-14.1 29.1-19.7 45.6-5.6 16.5-10.2 34.1-13.7 52.7-3.5 18.6-6.1 38.1-7.7 58.5-1.6 20.4-2.2 41.5-1.7 63.3.5 21.8 2.1 43.2 4.7 64.2 2.6 21 6.2 41.2 10.7 60.7 4.5 19.5 10.1 37.8 16.7 54.9 6.6 17.1 14.2 32.7 22.7 46.8 8.5 14.1 18.1 26.3 28.7 36.6 10.6 10.3 22.2 18.7 34.7 25.1 12.5 6.4 25.9 10.7 40.1 12.9 14.2 2.2 29.2 2.2 44.9 0 15.7-2.2 30.1-6.5 43.3-13 13.2-6.5 25.2-15.1 36-25.7 10.8-10.6 20.5-22.9 29.1-36.8 8.6-13.9 16.2-29.1 22.7-45.6 6.5-16.5 12.1-34.1 16.7-52.7 4.6-18.6 8.2-38.1 10.7-58.5 2.5-20.4 4.1-41.5 4.7-63.3.6-21.8.1-43.2-1.7-64.2-1.8-21-4.4-41.2-7.7-60.7-3.3-19.5-7.9-37.8-13.7-54.9-5.8-17.1-12.4-32.7-19.7-46.8-7.3-14.1-15.9-26.3-25.7-36.6-9.8-10.3-20.4-18.7-31.7-25.1-11.3-6.4-24-10.7-37.7-12.9-13.7-2.2-28.3-2.2-43.7 0z"/><path d="M520.5 518.1c-63.6 36.8-120.2 52.2-163.7 45.1-13.6-2.2-26.2-6.6-37.7-13.1-11.5-6.5-22.1-15.1-31.7-25.7-9.6-10.6-18.2-22.9-25.7-36.8-7.5-13.9-14.1-29.1-19.7-45.6-5.6-16.5-10.2-34.1-13.7-52.7-3.5-18.6-6.1-38.1-7.7-58.5-1.6-20.4-2.2-41.5-1.7-63.3.5-21.8 2.1-43.2 4.7-64.2 2.6-21 6.2-41.2 10.7-60.7 4.5-19.5 10.1-37.8 16.7-54.9 6.6-17.1 14.2-32.7 22.7-46.8 8.5-14.1 18.1-26.3 28.7-36.6 10.6-10.3 22.2-18.7 34.7-25.1 12.5-6.4 25.9-10.7 40.1-12.9 14.2-2.2 29.2-2.2 44.9 0 15.7 2.2 30.1 6.5 43.3 13 13.2 6.5 25.2 15.1 36 25.7 10.8 10.6 20.5 22.9 29.1 36.8 8.6 13.9 16.2 29.1 22.7 45.6 6.5 16.5 12.1 34.1 16.7 52.7 4.6 18.6 8.2 38.1 10.7 58.5 2.5 20.4 4.1 41.5 4.7 63.3.6 21.8.1 43.2-1.7 64.2-1.8 21-4.4 41.2-7.7 60.7-3.3 19.5-7.9 37.8-13.7 54.9-5.8 17.1-12.4 32.7-19.7 46.8-7.3 14.1-15.9 26.3-25.7 36.6-9.8 10.3-20.4 18.7-31.7 25.1-11.3 6.4-24 10.7-37.7 12.9-13.7 2.2-28.3 2.2-43.7 0z"/></g></svg>