<svg xmlns="http://www.w3.org/2000/svg" viewBox="0 0 410 404"><defs><linearGradient id="a" x1="50%" x2="50%" y1="0%" y2="100%"><stop stop-color="#41D1FF"/><stop offset="1" stop-color="#BD34FE"/></linearGradient><linearGradient id="b" x1="50%" x2="50%" y1="0%" y2="100%"><stop stop-color="#FFEA83"/><stop offset="0.083" stop-color="#FFDD35"/><stop offset="1" stop-color="#FFA800"/></linearGradient></defs><g fill="none"><path fill="url(#a)" d="M399 39L206 391c-5 9-17 9-22 0L11 39C5 29 13 16 25 18l180 32 180-32c12-2 20 11 14 21z"/><path fill="url(#b)" d="M292 0l-86 16-86-16c-7-1-13 6-11 13l16 86c1 7 8 11 15 10l66-12 66 12c7 1 14-3 15-10l16-86c2-7-4-14-11-13z"/><path fill="#FFF" fill-opacity="0.3" d="M205 31L25 0c-7-1-13 6-11 13l16 86c1 7 8 11 15 10l66-12 66 12c7 1 14-3 15-10l16-86c2-7-4-14-11-13z"/></g></svg>